<svg width="23" height="21" viewBox="0 0 23 21" fill="none" xmlns="http://www.w3.org/2000/svg">
<path d="M11.7837 0.357316C11.8332 0.648147 11.3628 0.977761 10.733 1.09353C10.1032 1.2093 9.55255 1.06738 9.50308 0.776552C9.45362 0.485722 9.92407 0.156107 10.5539 0.0403381C11.1836 -0.0754306 11.7343 0.0664849 11.7837 0.357316Z" fill="#3D8ED2"/>
<path d="M17.9487 3.10242C18.7256 3.42239 19.5102 3.2757 19.7011 2.77478C19.8919 2.27386 19.4168 1.6084 18.6398 1.28843C17.8629 0.968467 17.0783 1.11516 16.8874 1.61608C16.6966 2.117 17.1717 2.78246 17.9487 3.10242Z" fill="#3D8ED2"/>
<path d="M14.1693 6.52676C14.8568 8.81112 13.1956 11.3846 10.459 12.2747C7.72235 13.1649 4.94657 12.0347 4.2591 9.7503C3.57162 7.46593 5.23279 4.89248 7.96942 4.00232C10.706 3.11217 13.4818 4.24239 14.1693 6.52676Z" fill="#3D8ED2"/>
<path d="M10.7018 15.0057C10.621 16.081 9.20285 16.8429 7.53429 16.7074C5.86572 16.5719 4.57857 15.5903 4.65937 14.515C4.74016 13.4397 6.15831 12.6778 7.82687 12.8133C9.49544 12.9488 10.7826 13.9304 10.7018 15.0057Z" fill="#3D8ED2"/>
<path d="M10.6056 20.0098C11.8095 19.911 12.7343 19.1588 12.6713 18.3298C12.6083 17.5008 11.5814 16.9089 10.3776 17.0078C9.17374 17.1066 8.24891 17.8588 8.31189 18.6878C8.37487 19.5168 9.40182 20.1087 10.6056 20.0098Z" fill="#3D8ED2"/>
<path d="M22.7171 11.5084C23.1654 12.3278 22.6607 13.5054 21.5898 14.1386C20.5188 14.7719 19.2873 14.6209 18.839 13.8015C18.3907 12.9821 18.8955 11.8045 19.9664 11.1713C21.0373 10.538 22.2689 10.689 22.7171 11.5084Z" fill="#3D8ED2"/>
<path d="M4.34137 3.75722C4.76767 3.41677 4.99533 2.9812 4.84988 2.78434C4.70442 2.58748 4.24092 2.70388 3.81463 3.04433C3.38833 3.38477 3.16067 3.82034 3.30613 4.0172C3.45158 4.21406 3.91508 4.09766 4.34137 3.75722Z" fill="#3D8ED2"/>
<path d="M3.58105 13.5575C2.8339 13.8377 1.91354 13.1579 1.52536 12.0392C1.13718 10.9205 1.42817 9.78649 2.17532 9.50628C2.92246 9.22607 3.84282 9.9058 4.23101 11.0245C4.61919 12.1432 4.32819 13.2772 3.58105 13.5575Z" fill="#3D8ED2"/>
<path d="M2.44768 6.04923C1.9176 6.99407 1.89173 8.0049 2.3899 8.30699C2.88807 8.60907 3.72164 8.08801 4.25173 7.14317C4.78181 6.19834 4.80768 5.18751 4.30951 4.88542C3.81134 4.58334 2.97777 5.10439 2.44768 6.04923Z" fill="#3D8ED2"/>
<path d="M5.40476 3.86586C5.21941 3.38453 5.96021 2.62348 7.05938 2.16598C8.15856 1.70849 9.19987 1.72781 9.38522 2.20913C9.57057 2.69045 8.82977 3.45151 7.73059 3.909C6.63142 4.3665 5.59011 4.34718 5.40476 3.86586Z" fill="#3D8ED2"/>
<path d="M0.883885 15.447C1.19588 16.1426 1.8152 16.529 2.26718 16.3099C2.71916 16.0908 2.83264 15.3492 2.52065 14.6536C2.20866 13.9579 1.58934 13.5716 1.13736 13.7907C0.685377 14.0098 0.571893 14.7513 0.883885 15.447Z" fill="#3D8ED2"/>
<path d="M0.278967 9.53097C0.0052131 9.44447 -0.0819207 8.91328 0.084348 8.34452C0.250617 7.77576 0.607326 7.38481 0.88108 7.4713C1.15483 7.5578 1.24197 8.08899 1.0757 8.65775C0.909431 9.22651 0.552721 9.61746 0.278967 9.53097Z" fill="#3D8ED2"/>
<path d="M13.2792 1.30192C11.8658 1.17379 10.6719 1.64366 10.6126 2.35141C10.5532 3.05916 11.6508 3.73678 13.0642 3.86491C14.4776 3.99305 15.6715 3.52318 15.7308 2.81543C15.7902 2.10768 14.6925 1.43006 13.2792 1.30192Z" fill="#3D8ED2"/>
<path d="M15.3875 4.4243C16.2348 3.60753 17.7276 3.84909 18.7219 4.96383C19.7162 6.07858 19.8354 7.64439 18.9882 8.46116C18.141 9.27793 16.6481 9.03638 15.6538 7.92163C14.6595 6.80688 14.5403 5.24107 15.3875 4.4243Z" fill="#3D8ED2"/>
<path d="M16.0783 14.57C17.6432 13.488 18.3585 11.746 17.676 10.6792C16.9935 9.61234 15.1716 9.62464 13.6068 10.7067C12.0419 11.7887 11.3266 13.5307 12.0091 14.5975C12.6916 15.6644 14.5134 15.6521 16.0783 14.57Z" fill="#3D8ED2"/>
</svg>
